ply
format ascii 1.0
comment Created by Blender 2.79 (sub 0) - www.blender.org, source file: 'ARAPTestShape.blend'
element vertex 68
property float x
property float y
property float z
property uchar red
property uchar green
property uchar blue
element face 92
property list uchar uint vertex_indices
end_header
0.000000 -0.000000 0.750560 255 214 98
0.235527 -0.000000 0.935974 255 214 98
0.152007 -0.000000 1.000000 255 214 98
-0.581837 -0.000000 0.387533 255 214 98
-1.000000 -0.000000 0.273946 255 214 98
-0.582685 -0.000000 0.270605 255 214 98
0.581837 -0.000000 0.387533 255 214 98
1.000000 -0.000000 0.501120 255 214 98
0.581014 -0.000000 0.501120 255 214 98
0.000000 -0.000000 1.000000 255 214 98
-0.152007 -0.000000 1.000000 255 215 100
-0.319046 -0.000000 0.741656 255 214 98
-0.319046 -0.000000 0.611365 255 214 98
0.240537 -0.000000 0.556242 255 214 98
0.319046 -0.000000 0.611365 255 214 98
0.162028 -0.000000 0.501119 255 215 99
-0.235527 -0.000000 0.935974 255 214 98
-0.319046 -0.000000 0.871947 255 214 98
-0.162028 -0.000000 0.501119 255 214 98
0.000000 -0.000000 0.501119 255 214 98
0.319046 -0.000000 0.741656 255 214 98
0.319046 -0.000000 0.871947 255 215 100
-0.240537 -0.000000 0.556242 255 214 98
-0.165369 -0.000000 0.267264 255 214 98
-1.000000 -0.000000 0.501120 255 218 107
-1.000000 -0.000000 0.387533 255 215 101
1.000000 -0.000000 0.273946 255 214 98
1.000000 -0.000000 0.387533 255 214 98
-0.163651 -0.000000 0.387533 255 214 98
-0.581014 -0.000000 0.501120 255 214 98
0.000000 -0.000000 0.267264 255 214 98
0.163651 -0.000000 0.387533 255 214 99
0.000000 -0.000000 0.387533 255 214 99
0.165369 -0.000000 0.267264 255 214 98
-0.107730 -0.000000 0.091435 255 214 98
-0.485905 0.000000 -0.644871 255 214 98
-0.552902 0.000000 -1.000000 255 215 100
-0.276451 0.000000 -0.618598 255 214 98
0.107730 -0.000000 0.091435 255 214 98
-0.108596 0.000000 -0.049552 255 214 98
-0.061512 0.000000 -0.049552 255 215 102
-0.675109 0.000000 -0.668604 255 214 98
-0.582685 0.000000 -0.366368 255 214 99
-0.791342 0.000000 -0.683184 255 214 98
0.000000 -0.000000 0.091435 255 214 98
0.552902 0.000000 -1.000000 255 222 129
0.564938 0.000000 -0.654785 255 214 98
0.485905 0.000000 -0.644871 255 214 98
0.776451 0.000000 -1.000000 255 214 98
0.791342 0.000000 -0.683184 255 214 98
0.675109 0.000000 -0.668604 255 214 98
-0.253999 0.000000 -0.049552 255 214 98
-0.453446 0.000000 -0.472816 255 214 98
0.000000 0.000000 -0.237197 255 214 98
0.000000 0.000000 -0.049552 255 214 98
0.453446 0.000000 -0.472816 255 214 98
0.276451 0.000000 -0.618598 255 214 98
0.253999 0.000000 -0.049552 255 214 98
0.108596 0.000000 -0.049552 255 214 98
0.582685 -0.000000 0.270605 255 216 102
-0.564938 0.000000 -0.654785 255 214 98
-0.374027 0.000000 -0.049552 255 214 98
0.061512 0.000000 -0.049552 255 214 98
0.582685 0.000000 -0.366368 255 214 98
0.374027 0.000000 -0.049552 255 214 98
-0.776451 0.000000 -1.000000 255 214 98
-1.000000 0.000000 -1.000000 255 214 98
1.000000 0.000000 -1.000000 255 214 98
3 0 1 2
3 3 4 5
3 6 7 8
3 0 9 10
3 0 11 12
3 0 13 14
3 15 13 0
3 0 16 17
3 18 19 0
3 0 20 21
3 16 0 10
3 19 15 0
3 22 0 12
3 1 0 21
3 11 0 17
3 20 0 14
3 22 18 0
3 9 0 2
3 23 3 5
3 3 24 25
3 6 26 27
3 28 29 3
3 30 31 32
3 32 15 19
3 33 6 31
3 31 8 15
3 34 30 23
3 30 28 23
3 32 18 28
3 35 36 37
3 33 30 38
3 39 40 34
3 41 42 43
3 38 30 44
3 45 46 47
3 48 49 50
3 51 52 39
3 40 53 54
3 55 53 56
3 57 38 58
3 3 25 4
3 6 27 7
3 23 28 3
3 3 29 24
3 6 59 26
3 28 18 29
3 30 33 31
3 32 31 15
3 33 59 6
3 31 6 8
3 30 32 28
3 32 19 18
3 60 36 35
3 52 37 53
3 60 42 41
3 56 45 47
3 50 46 48
3 51 61 42
3 58 38 62
3 33 38 57
3 62 44 54
3 30 34 44
3 57 55 63
3 58 62 53
3 53 62 54
3 40 44 34
3 53 40 39
3 34 51 39
3 23 61 51
3 63 64 57
3 34 23 51
3 64 33 57
3 52 53 39
3 55 58 53
3 52 60 35
3 65 60 41
3 65 43 66
3 52 35 37
3 55 47 46
3 63 46 50
3 63 50 49
3 55 56 47
3 45 48 46
3 48 67 49
3 51 42 52
3 60 65 36
3 60 52 42
3 62 38 44
3 57 58 55
3 40 54 44
3 65 41 43
3 63 55 46
