ply
format ascii 1.0
comment VCGLIB generated
element vertex 8
property float x
property float y
property float z
property float nx
property float ny
property float nz
property int flags
element face 12
property list uchar int vertex_indices
property int flags
end_header
1 0.9999999 -1 1.570796 1.570797 -1.570796 0 
1 -1 -1 1.570796 -1.570796 -1.570797 0 
-1 -0.9999998 -1 -1.570797 -1.570796 -1.570796 0 
-0.9999996 1 -1 -1.570796 1.570797 -1.570796 0 
1 0.9999995 1 1.570797 1.570796 1.570796 0 
0.9999993 -1.000001 1 1.570796 -1.570798 1.570797 0 
-1 -0.9999996 1 -1.570797 -1.570796 1.570796 0 
-0.9999999 1 1 -1.570796 1.570796 1.570796 0 
3 1 3 0 0 
3 7 5 4 0 
3 4 1 0 0 
3 5 2 1 0 
3 2 7 3 0 
3 0 7 4 0 
3 1 2 3 0 
3 7 6 5 0 
3 4 5 1 0 
3 5 6 2 0 
3 2 6 7 0 
3 0 3 7 0 
